<svg width="17" height="21" viewBox="0 0 17 21" fill="none" xmlns="http://www.w3.org/2000/svg">
<path d="M15.8334 8.16667C15.8334 12.9516 10.5252 17.935 8.74266 19.474C8.57658 19.5989 8.37447 19.6665 8.16671 19.6665C7.95894 19.6665 7.75673 19.5989 7.59075 19.474C5.80825 17.935 0.5 12.9516 0.5 8.16667C0.5 6.13334 1.30774 4.1833 2.74552 2.74552C4.1833 1.30773 6.13331 0.5 8.16671 0.5C10.2 0.5 12.15 1.30773 13.5878 2.74552C15.0256 4.1833 15.8334 6.13334 15.8334 8.16667Z" stroke="#031E4C" stroke-linecap="round" stroke-linejoin="round"/>
<path d="M8.16679 11.0417C9.75455 11.0417 11.0418 9.75461 11.0418 8.16675C11.0418 6.57893 9.75455 5.29175 8.16679 5.29175C6.57892 5.29175 5.29175 6.57893 5.29175 8.16675C5.29175 9.75461 6.57892 11.0417 8.16679 11.0417Z" stroke="#031E4C" stroke-linecap="round" stroke-linejoin="round"/>
</svg>
