<svg width="21" height="21" viewBox="0 0 21 21" fill="none" xmlns="http://www.w3.org/2000/svg">
<path d="M11.8587 15.068C12.057 15.1628 12.2803 15.1845 12.492 15.1294C12.7037 15.0744 12.8911 14.9458 13.0232 14.765L13.364 14.3C13.5428 14.0516 13.7747 13.85 14.0413 13.7111C14.3079 13.5723 14.6019 13.5 14.9 13.5H17.78C18.2892 13.5 18.7776 13.7107 19.1377 14.0858C19.4977 14.4609 19.7 14.9696 19.7 15.5V18.5C19.7 19.0304 19.4977 19.5391 19.1377 19.9142C18.7776 20.2893 18.2892 20.5 17.78 20.5C13.197 20.5 8.80185 18.6036 5.5612 15.2279C2.32056 11.8523 0.5 7.2739 0.5 2.5C0.5 1.96957 0.702282 1.46086 1.06235 1.08579C1.42243 0.71071 1.91078 0.5 2.42 0.5H5.3C5.80921 0.5 6.29757 0.71071 6.65764 1.08579C7.01771 1.46086 7.22 1.96957 7.22 2.5V5.5C7.22 5.81049 7.1506 6.11672 7.0173 6.39443C6.884 6.67214 6.69045 6.91371 6.452 7.1L6.00272 7.451C5.82647 7.59118 5.70226 7.79059 5.65116 8.01535C5.60006 8.24012 5.62523 8.47638 5.7224 8.684C7.03441 11.4599 9.19228 13.7048 11.8587 15.068Z" stroke="#031E4C" stroke-linecap="round" stroke-linejoin="round"/>
</svg>
