<svg width="28" height="28" viewBox="0 0 28 28" fill="none" xmlns="http://www.w3.org/2000/svg">
<path d="M27.4523 8.08911C27.3862 6.62337 27.1494 5.6205 26.8135 4.74436C26.4611 3.84067 25.993 3.06923 25.2275 2.30881C24.462 1.54839 23.6966 1.069 22.7934 0.721848C21.9178 0.38021 20.9155 0.148778 19.4507 0.0826544C17.9803 0.0165309 17.5122 0 13.7785 0C10.0392 0 9.57114 0.0165309 8.10628 0.0826544C6.64143 0.148778 5.63915 0.38572 4.76354 0.721848C3.85489 1.07451 3.08392 1.54288 2.32395 2.30881C1.56399 3.07474 1.08488 3.84067 0.73794 4.74436C0.402014 5.6205 0.165214 6.62337 0.09913 8.08911C0.0330462 9.56035 0.0165253 10.0287 0.0165253 13.7647C0.0165253 17.5062 0.0330462 17.9746 0.09913 19.4403C0.165214 20.906 0.402014 21.9089 0.73794 22.7851C1.09039 23.6887 1.55848 24.4602 2.32395 25.2206C3.08392 25.9865 3.85489 26.4604 4.75804 26.8076C5.63365 27.1492 6.63592 27.3806 8.10078 27.4468C9.57114 27.5129 10.0392 27.5294 13.773 27.5294C17.5122 27.5294 17.9803 27.5129 19.4452 27.4468C20.91 27.3806 21.9123 27.1437 22.7879 26.8076C23.691 26.4549 24.462 25.9865 25.222 25.2206C25.982 24.4547 26.4611 23.6887 26.808 22.7851C27.1494 21.9089 27.3807 20.906 27.4468 19.4403C27.5129 17.9691 27.5294 17.5007 27.5294 13.7647C27.5294 10.0287 27.5184 9.55484 27.4523 8.08911ZM24.9797 19.3301C24.9191 20.6746 24.6933 21.4075 24.5061 21.8869C24.2583 22.5261 23.9554 22.9889 23.4708 23.4738C22.9862 23.9587 22.5291 24.2508 21.8848 24.5098C21.4001 24.6971 20.6677 24.923 19.3295 24.9837C17.8812 25.0498 17.4461 25.0663 13.7675 25.0663C10.0888 25.0663 9.65375 25.0498 8.20541 24.9837C6.86171 24.923 6.12928 24.6971 5.65017 24.5098C5.01136 24.2618 4.54877 23.9587 4.06416 23.4738C3.57954 22.9889 3.28767 22.5316 3.02885 21.8869C2.84161 21.402 2.61582 20.6691 2.55524 19.3301C2.48916 17.8809 2.47264 17.4456 2.47264 13.7647C2.47264 10.0838 2.48916 9.64852 2.55524 8.19931C2.61582 6.8548 2.84161 6.12193 3.02885 5.64254C3.27666 5.00334 3.57954 4.54048 4.06416 4.05557C4.54877 3.57067 5.00585 3.27862 5.65017 3.01964C6.13478 2.83229 6.86721 2.60637 8.20541 2.54575C9.65375 2.47963 10.0888 2.4631 13.7675 2.4631C17.4461 2.4631 17.8812 2.47963 19.3295 2.54575C20.6732 2.60637 21.4056 2.83229 21.8848 3.01964C22.5236 3.2676 22.9862 3.57067 23.4708 4.05557C23.9554 4.54048 24.2473 4.99783 24.5061 5.64254C24.6933 6.12744 24.9191 6.86031 24.9797 8.19931C25.0458 9.64852 25.0623 10.0838 25.0623 13.7647C25.0623 17.4456 25.0403 17.8809 24.9797 19.3301Z" fill="url(#paint0_linear_522_14)"/>
<path d="M13.7675 6.68951C9.85756 6.68951 6.69655 9.85793 6.69655 13.7647C6.69655 17.677 9.86306 20.8399 13.7675 20.8399C17.672 20.8399 20.8385 17.666 20.8385 13.7647C20.8385 9.85242 17.6775 6.68951 13.7675 6.68951ZM13.7675 18.3548C11.2343 18.3548 9.1802 16.2995 9.1802 13.7647C9.1802 11.23 11.2343 9.17465 13.7675 9.17465C16.3007 9.17465 18.3548 11.23 18.3548 13.7647C18.3548 16.2995 16.3007 18.3548 13.7675 18.3548Z" fill="url(#paint1_linear_522_14)"/>
<path d="M21.1138 8.06704C22.0262 8.06704 22.7659 7.32693 22.7659 6.41395C22.7659 5.50098 22.0262 4.76086 21.1138 4.76086C20.2014 4.76086 19.4617 5.50098 19.4617 6.41395C19.4617 7.32693 20.2014 8.06704 21.1138 8.06704Z" fill="#BC30A0"/>
<path d="M0 13.7647C0 17.5062 0.0165209 17.9746 0.0826048 19.4403C0.148689 20.906 0.385489 21.9089 0.721415 22.7851C1.07386 23.6887 1.54196 24.4602 2.30743 25.2206C3.06739 25.981 3.83837 26.4604 4.74151 26.8076C5.61712 27.1492 6.61939 27.3806 8.08425 27.4468C9.55462 27.5129 10.0227 27.5294 13.7564 27.5294C17.4957 27.5294 17.9638 27.5129 19.4286 27.4468C20.8935 27.3806 21.8958 27.1437 22.7714 26.8076C23.6745 26.4549 24.4455 25.9865 25.2055 25.2206C25.9654 24.4602 26.4445 23.6887 26.7915 22.7851C27.1329 21.9089 27.3642 20.906 27.4303 19.4403C27.4964 17.9691 27.5129 17.5007 27.5129 13.7647C27.5129 10.0232 27.4964 9.55484 27.4303 8.08911C27.3642 6.62337 27.1274 5.6205 26.7915 4.74436C26.439 3.84067 25.9709 3.06923 25.2055 2.30881C24.451 1.54288 23.68 1.069 22.7769 0.721848C21.9013 0.38021 20.899 0.148778 19.4341 0.0826544C17.9638 0.0165309 17.4957 0 13.762 0C10.0227 0 9.55462 0.0165309 8.08976 0.0826544C6.6249 0.148778 5.62263 0.38572 4.74702 0.721848C3.84387 1.07451 3.0729 1.54288 2.31293 2.30881C1.55297 3.07474 1.07386 3.84067 0.726922 4.74436C0.385489 5.6205 0.148689 6.62337 0.0826048 8.08911C0.0165209 9.55484 0 10.0232 0 13.7647ZM2.48365 13.7647C2.48365 10.0893 2.50017 9.64852 2.56625 8.19931C2.62683 6.8548 2.85262 6.12193 3.03985 5.64254C3.28767 5.00334 3.59055 4.54048 4.07517 4.05557C4.55978 3.57067 5.01686 3.27862 5.66118 3.01964C6.14579 2.83229 6.87822 2.60637 8.21642 2.54575C9.66476 2.47963 10.0998 2.4631 13.7785 2.4631C17.4571 2.4631 17.8922 2.47963 19.3405 2.54575C20.6842 2.60637 21.4167 2.83229 21.8958 3.01964C22.5346 3.2676 22.9972 3.57067 23.4818 4.05557C23.9664 4.54048 24.2583 4.99783 24.5171 5.64254C24.7043 6.12744 24.9301 6.86031 24.9907 8.19931C25.0568 9.64852 25.0733 10.0838 25.0733 13.7647C25.0733 17.4456 25.0568 17.8809 24.9907 19.3301C24.9301 20.6746 24.7043 21.4075 24.5171 21.8869C24.2693 22.5261 23.9664 22.9889 23.4818 23.4738C22.9972 23.9587 22.5401 24.2508 21.8958 24.5098C21.4112 24.6971 20.6787 24.923 19.3405 24.9837C17.8922 25.0498 17.4571 25.0663 13.7785 25.0663C10.0998 25.0663 9.66476 25.0498 8.21642 24.9837C6.87271 24.923 6.14029 24.6971 5.66118 24.5098C5.02237 24.2618 4.55978 23.9587 4.07517 23.4738C3.59055 22.9889 3.29868 22.5316 3.03985 21.8869C2.85262 21.402 2.62683 20.6691 2.56625 19.3301C2.49466 17.8809 2.48365 17.4401 2.48365 13.7647Z" fill="url(#paint2_linear_522_14)"/>
<defs>
<linearGradient id="paint0_linear_522_14" x1="23.2801" y1="2.10509" x2="3.36437" y2="26.5058" gradientUnits="userSpaceOnUse">
<stop stop-color="#AE3DAE"/>
<stop offset="0.0468721" stop-color="#B23BA6"/>
<stop offset="0.1216" stop-color="#BD368E"/>
<stop offset="0.2148" stop-color="#CE2E69"/>
<stop offset="0.3216" stop-color="#E62335"/>
<stop offset="0.418" stop-color="#FF1800"/>
</linearGradient>
<linearGradient id="paint1_linear_522_14" x1="17.1397" y1="8.09006" x2="9.90478" y2="20.2472" gradientUnits="userSpaceOnUse">
<stop stop-color="#E12F6A"/>
<stop offset="0.1705" stop-color="#EA3751"/>
<stop offset="0.3563" stop-color="#F13D3E"/>
<stop offset="0.5467" stop-color="#F64133"/>
<stop offset="0.7469" stop-color="#F7422F"/>
<stop offset="0.7946" stop-color="#F74C2F"/>
<stop offset="0.8743" stop-color="#F7652F"/>
<stop offset="0.9757" stop-color="#F78F2E"/>
<stop offset="1" stop-color="#F79A2E"/>
</linearGradient>
<linearGradient id="paint2_linear_522_14" x1="20.0025" y1="-1.13333" x2="7.81593" y2="27.9152" gradientUnits="userSpaceOnUse">
<stop offset="0.2341" stop-color="#9E35A5" stop-opacity="0"/>
<stop offset="0.4512" stop-color="#D42F7F" stop-opacity="0.5"/>
<stop offset="0.7524" stop-color="#F7772E"/>
<stop offset="0.9624" stop-color="#FEF780"/>
</linearGradient>
</defs>
</svg>
