<svg width="32" height="32" viewBox="0 0 32 32" fill="none" xmlns="http://www.w3.org/2000/svg">
<g clip-path="url(#clip0_522_27)">
<path d="M0 4.16217C0 3.15829 0.351361 2.33011 1.05405 1.67762C1.75675 1.0251 2.67028 0.698853 3.79459 0.698853C4.89885 0.698853 5.79227 1.02007 6.4749 1.66256C7.1776 2.32511 7.52896 3.18841 7.52896 4.25252C7.52896 5.21623 7.18765 6.0193 6.50502 6.66179C5.80233 7.32434 4.87876 7.65561 3.73436 7.65561H3.70425C2.59999 7.65561 1.70657 7.32434 1.02394 6.66179C0.341303 5.99924 0 5.16602 0 4.16217ZM0.391506 30.5135V10.3961H7.07722V30.5135H0.391506ZM10.7815 30.5135H17.4672V19.2803C17.4672 18.5776 17.5475 18.0355 17.7081 17.6541C17.9892 16.9714 18.4158 16.3942 18.988 15.9224C19.5602 15.4506 20.278 15.2147 21.1413 15.2147C23.39 15.2147 24.5143 16.7305 24.5143 19.7622V30.5135H31.2V18.9792C31.2 16.0077 30.4973 13.7541 29.0919 12.2182C27.6865 10.6823 25.8294 9.9143 23.5205 9.9143C20.9305 9.9143 18.9127 11.0286 17.4672 13.2572V13.3174H17.4371L17.4672 13.2572V10.3961H10.7815C10.8216 11.0386 10.8417 13.0363 10.8417 16.3892C10.8417 19.7421 10.8216 24.4502 10.7815 30.5135Z" fill="#0A66C2"/>
</g>
<defs>
<clipPath id="clip0_522_27">
<rect width="31.2" height="31.2" fill="white"/>
</clipPath>
</defs>
</svg>
