<svg width="28" height="28" viewBox="0 0 28 28" fill="none" xmlns="http://www.w3.org/2000/svg">
<g clip-path="url(#clip0_522_39)">
<path d="M6.10352e-05 27.5294L1.94579 20.4639C0.742855 18.39 0.111809 16.0414 0.118382 13.6404C0.118382 6.11692 6.27108 0 13.8239 0C17.4919 0 20.9363 1.41965 23.5197 3.99726C26.1096 6.57487 27.536 10.003 27.5294 13.6469C27.5294 21.1704 21.3768 27.2874 13.8173 27.2874H13.8108C11.5167 27.2874 9.26198 26.7116 7.25709 25.6256L6.10352e-05 27.5294ZM7.60548 23.1593L8.01961 23.4079C9.76813 24.4415 11.773 24.9845 13.8173 24.9911H13.8239C20.1015 24.9911 25.2156 19.9078 25.2156 13.6535C25.2156 10.6245 24.0324 7.77863 21.8829 5.6328C19.7334 3.48697 16.8674 2.30938 13.8239 2.30938C7.54632 2.30284 2.43222 7.3861 2.43222 13.6404C2.43222 15.7797 3.0304 17.8666 4.17417 19.6723L4.44368 20.1041L3.29333 24.2845L7.60548 23.1593Z" fill="white"/>
<path d="M0.479828 27.0519L2.35982 20.2284C1.19633 18.233 0.585002 15.9629 0.585002 13.647C0.591576 6.38517 6.52735 0.4776 13.8238 0.4776C17.3669 0.4776 20.6865 1.85145 23.1843 4.33748C25.6822 6.8235 27.0561 10.1338 27.0561 13.6535C27.0561 20.9153 21.1137 26.8229 13.8238 26.8229H13.8173C11.602 26.8229 9.42622 26.2668 7.49364 25.2201L0.479828 27.0519Z" fill="url(#paint0_linear_522_39)"/>
<path d="M6.10352e-05 27.5294L1.94579 20.4639C0.742855 18.39 0.111809 16.0414 0.118382 13.6404C0.118382 6.11692 6.27108 0 13.8239 0C17.4919 0 20.9363 1.41965 23.5197 3.99726C26.1096 6.57487 27.536 10.003 27.5294 13.6469C27.5294 21.1704 21.3768 27.2874 13.8173 27.2874H13.8108C11.5167 27.2874 9.26198 26.7116 7.25709 25.6256L6.10352e-05 27.5294ZM7.60548 23.1593L8.01961 23.4079C9.76813 24.4415 11.773 24.9845 13.8173 24.9911H13.8239C20.1015 24.9911 25.2156 19.9078 25.2156 13.6535C25.2156 10.6245 24.0324 7.77863 21.8829 5.6328C19.7334 3.48697 16.8674 2.30938 13.8239 2.30938C7.54632 2.30284 2.43222 7.3861 2.43222 13.6404C2.43222 15.7797 3.0304 17.8666 4.17417 19.6723L4.44368 20.1041L3.29333 24.2845L7.60548 23.1593Z" fill="url(#paint1_linear_522_39)"/>
<path fill-rule="evenodd" clip-rule="evenodd" d="M10.3991 7.93567C10.1427 7.3665 9.8732 7.35342 9.62998 7.34687C9.43278 7.34033 9.20271 7.34033 8.97264 7.34033C8.74257 7.34033 8.37446 7.42538 8.05894 7.76557C7.74341 8.10576 6.86258 8.93008 6.86258 10.6114C6.86258 12.2862 8.0918 13.9087 8.26271 14.1376C8.43362 14.3666 10.6357 17.919 14.113 19.2863C17.0053 20.4247 17.5969 20.1957 18.2214 20.1368C18.8459 20.0779 20.246 19.3125 20.5352 18.5143C20.8179 17.7162 20.8179 17.0358 20.7324 16.8919C20.647 16.748 20.4169 16.6629 20.0751 16.4928C19.7333 16.3227 18.0505 15.4984 17.735 15.3806C17.4195 15.2694 17.1894 15.2106 16.9659 15.5507C16.7358 15.8909 16.0785 16.6564 15.8813 16.8853C15.6841 17.1143 15.4803 17.1405 15.1385 16.9704C14.7967 16.8003 13.6923 16.4405 12.3842 15.276C11.3654 14.3732 10.6751 13.2544 10.4779 12.9143C10.2807 12.5741 10.4582 12.3909 10.6291 12.2208C10.7803 12.0703 10.971 11.8217 11.1419 11.6254C11.3128 11.4292 11.3719 11.2853 11.4837 11.0563C11.5954 10.8273 11.5428 10.631 11.4574 10.4609C11.3719 10.2974 10.7014 8.60951 10.3991 7.93567Z" fill="white"/>
</g>
<defs>
<linearGradient id="paint0_linear_522_39" x1="13.7673" y1="27.0505" x2="13.7673" y2="0.47667" gradientUnits="userSpaceOnUse">
<stop stop-color="#20B038"/>
<stop offset="1" stop-color="#60D66A"/>
</linearGradient>
<linearGradient id="paint1_linear_522_39" x1="13.7674" y1="27.5268" x2="13.7674" y2="0" gradientUnits="userSpaceOnUse">
<stop stop-color="#F9F9F9"/>
<stop offset="1" stop-color="white"/>
</linearGradient>
<clipPath id="clip0_522_39">
<rect width="27.5294" height="27.5294" rx="6.88235" fill="white"/>
</clipPath>
</defs>
</svg>
