<svg width="39" height="39" viewBox="0 0 39 39" fill="none" xmlns="http://www.w3.org/2000/svg">
<g clip-path="url(#clip0_522_32)">
<path d="M38.1967 10.1227C37.747 8.45217 36.4298 7.13504 34.7593 6.68529C31.7074 5.85004 19.4999 5.85004 19.4999 5.85004C19.4999 5.85004 7.29239 5.85004 4.24051 6.65316C2.60213 7.10291 1.25288 8.45217 0.803127 10.1227C0 13.1746 0 19.5032 0 19.5032C0 19.5032 0 25.864 0.803127 28.8837C1.25288 30.5542 2.57001 31.8713 4.24051 32.3211C7.32452 33.1563 19.4999 33.1563 19.4999 33.1563C19.4999 33.1563 31.7074 33.1563 34.7593 32.3532C36.4298 31.9035 37.747 30.5863 38.1967 28.9158C38.9998 25.864 38.9998 19.5353 38.9998 19.5353C38.9998 19.5353 39.032 13.1746 38.1967 10.1227Z" fill="#FF0000"/>
<path d="M15.6128 25.35L25.7643 19.5032L15.6128 13.6564V25.35Z" fill="white"/>
</g>
<defs>
<clipPath id="clip0_522_32">
<rect width="39" height="39" rx="9.75" fill="white"/>
</clipPath>
</defs>
</svg>
